<svg id="Layer_1" data-name="Layer 1" xmlns="http://www.w3.org/2000/svg" viewBox="0 0 412.29 145.83"><defs><style>.cls-1{fill:#2c3e50;}.cls-2{fill:#e57e25;}</style></defs><path class="cls-1" d="M187.51,398.14c-1.12,1.29-2.43,2.68-3.92,4.14a45,45,0,0,1-4.81,4.1,27.44,27.44,0,0,1-5.37,3.13,13.81,13.81,0,0,1-5.55,1.23,14.72,14.72,0,0,1-5.68-1,13.72,13.72,0,0,1-3.93-2.38,11.85,11.85,0,0,1-2.51-3.08,16.08,16.08,0,0,1-1.36-3.17c-1.06,1.06-2.18,2.08-3.35,3.08a31,31,0,0,1-3.66,2.69,20.3,20.3,0,0,1-3.83,1.89,11,11,0,0,1-3.79.71,10.27,10.27,0,0,1-4.62-.88,6.91,6.91,0,0,1-2.6-2.16,7.41,7.41,0,0,1-1.19-2.69,11.17,11.17,0,0,1-.31-2.38,22.49,22.49,0,0,1,1.28-8.41,30.41,30.41,0,0,1,4.14-7.89,43.64,43.64,0,0,1,6.21-6.87,47.35,47.35,0,0,1,7.44-5.51,40.05,40.05,0,0,1,8-3.65,26.57,26.57,0,0,1,7.66-1.41,7.81,7.81,0,0,1,5.69,1.93,5.3,5.3,0,0,1,1.63,4.67,7,7,0,0,1-1.19,3.75,17.68,17.68,0,0,1-3,3.52,24.85,24.85,0,0,1-3.84,2.91,23.16,23.16,0,0,1-3.79,1.94,6.88,6.88,0,0,1-2.9.57,1.12,1.12,0,0,1-1.19-1.23c0-.82,0-1.75,0-2.78a11.34,11.34,0,0,0-.44-2.9,5.1,5.1,0,0,0-1.36-2.3,3.84,3.84,0,0,0-2.91-.83,11.85,11.85,0,0,0-6,1.67,10.14,10.14,0,0,0-3.48,3.7,13.11,13.11,0,0,0-1.5,4.63,17.07,17.07,0,0,0,0,4.45,12.26,12.26,0,0,0,1.93,5.11q1.5,2.2,5,2.38a9,9,0,0,0,3.61-.58,19.33,19.33,0,0,0,3.44-1.71c.7-.53,1.43-1.12,2.2-1.77l2.29-1.93,4.4-4.76v.09l.27-.36a1.35,1.35,0,0,0-.18.53c.18.35.06.88-.35,1.59a10.8,10.8,0,0,0,.75,4.27,12.83,12.83,0,0,0,2.42,4,9.82,9.82,0,0,0,3.83,2.69,7.29,7.29,0,0,0,4.89.09,19.22,19.22,0,0,0,5.42-2.2,17.91,17.91,0,0,0,3.84-3.35Z" transform="translate(-58.91 -306.64)"/><path class="cls-1" d="M197.2,327q1.05,1.5,1.72,6t1,10.92q.31,6.39.31,14T199.93,373a25.77,25.77,0,0,1,5.11-3.35,14.89,14.89,0,0,1,5.81-1.58,12,12,0,0,1,8.59,3.48A15.57,15.57,0,0,1,223,377.3a23.52,23.52,0,0,1,1.15,9.39,26,26,0,0,1-2,9.47,25.09,25.09,0,0,1-4.23,6.65,3,3,0,0,0,2.12.27,10.07,10.07,0,0,0,3.21-1,29.89,29.89,0,0,0,6.52-4.31c1-.86,1.78-1.6,2.43-2.25l2.29,2.64c-1.18,1.29-2.48,2.68-3.92,4.14a34.05,34.05,0,0,1-4.81,4.06,30.32,30.32,0,0,1-5.68,3.12,16.14,16.14,0,0,1-6.39,1.28,31,31,0,0,1-3.74-.26c-1.38-.18-2.78-.43-4.19-.75a35.78,35.78,0,0,1-4.09-1.19,26.29,26.29,0,0,1-3.48-1.5,3,3,0,0,1-1-.44.61.61,0,0,1-.36-.26l-.44.08a4,4,0,0,1-.88,1.77,7.8,7.8,0,0,1-4.45,2.51,9.75,9.75,0,0,1-4.8-.22,6.17,6.17,0,0,1-3.39-2.51,4.76,4.76,0,0,1-.22-4.45,67.62,67.62,0,0,0,1.63-7.84q1-6,1.67-15t.53-20.57a212.09,212.09,0,0,0-1.8-24.5,2.21,2.21,0,0,1,.61-1.76,14.65,14.65,0,0,1,2.07-2.16,28.59,28.59,0,0,1,2.87-2.15,24.67,24.67,0,0,1,3-1.77,13.56,13.56,0,0,1,2.51-1Q196.84,326.52,197.2,327Zm8.63,49.34a7.72,7.72,0,0,0-3.3.53,13,13,0,0,0-2.87,1.59c-.23,3.93-.49,7.65-.79,11.14s-.62,6.6-1,9.3l.18-.09a7.39,7.39,0,0,0,5.11.13,12.17,12.17,0,0,0,4.89-2.91,15.39,15.39,0,0,0,3.48-5.15,13,13,0,0,0,1-6.52c-.06-.41-.18-1-.35-1.9a9.8,9.8,0,0,0-1-2.59,7.34,7.34,0,0,0-2-2.34A6.21,6.21,0,0,0,205.83,376.29Z" transform="translate(-58.91 -306.64)"/><path class="cls-1" d="M233.23,338.14c-.17-.53.18-1.34,1.06-2.42a13,13,0,0,1,3.44-2.91,12,12,0,0,1,4.58-1.63,5.59,5.59,0,0,1,4.49,1.32,11.35,11.35,0,0,0-.57,2.91q-.31,2.46-.66,6.3t-.66,8.63c-.21,3.21-.41,6.51-.62,9.92s-.38,6.79-.53,10.17-.25,6.51-.31,9.39-.07,5.4,0,7.57a30.33,30.33,0,0,0,.31,4.67c.17.88.36,1.81.57,2.78a13.84,13.84,0,0,0,.88,2.73,9,9,0,0,0,1.46,2.29,4.81,4.81,0,0,0,2.2,1.45,8.08,8.08,0,0,0,3.52-.26,17.37,17.37,0,0,0,9.25-5.55l2.29,2.64c-1.11,1.29-2.42,2.68-3.92,4.14a42.59,42.59,0,0,1-4.84,4.1,29,29,0,0,1-5.42,3.13,14.32,14.32,0,0,1-11.1.22,13.58,13.58,0,0,1-3.84-2.47,11.7,11.7,0,0,1-2.42-3.21,17.87,17.87,0,0,1-1.28-3.26,21.9,21.9,0,0,1-.57-3.53h.09a29.41,29.41,0,0,1-.44-5q-.09-3.39-.09-7.84c0-3,.06-6.17.18-9.6s.26-6.86.44-10.27.36-6.69.57-9.87.43-6,.66-8.41.46-4.39.66-5.86S233,338.2,233.23,338.14Z" transform="translate(-58.91 -306.64)"/><path class="cls-1" d="M259.84,349c-.06-.12.19-.47.75-1.06s1.26-1.28,2.12-2.07,1.79-1.64,2.81-2.56,2-1.73,2.91-2.46,1.69-1.35,2.34-1.85a3.31,3.31,0,0,1,1.23-.75c.18,0,.56.37,1.15,1.1s1.24,1.63,2,2.69,1.5,2.21,2.29,3.48,1.48,2.42,2.07,3.48a21,21,0,0,1,1.28,2.64c.26.71.28,1,0,1,0,.12-.26.4-.79.84s-1.21,1-2,1.58-1.72,1.25-2.69,1.9l-2.68,1.76c-.83.53-1.53.95-2.12,1.28s-.88.45-.88.39a16,16,0,0,1-3.17-2.55,39.17,39.17,0,0,1-3.08-3.44q-1.41-1.75-2.43-3.3A7.72,7.72,0,0,1,259.84,349Zm2.38,28.5a22.65,22.65,0,0,1,2.78-2.73,29.29,29.29,0,0,1,4.45-3.08,18.24,18.24,0,0,1,5.9-2.16c-.06.64-.13,1.61-.22,2.9s-.16,2.72-.22,4.28-.12,3.18-.18,4.89-.1,3.27-.13,4.71-.06,2.69-.09,3.75a11.55,11.55,0,0,0,.05,2,18.45,18.45,0,0,0,1.23,5.51,6,6,0,0,0,3.79,3.74,8.08,8.08,0,0,0,3.52-.26,19.35,19.35,0,0,0,5.42-2.2,17.62,17.62,0,0,0,3.83-3.35l2.29,2.64c-1.11,1.29-2.42,2.68-3.92,4.14a44,44,0,0,1-4.8,4.1,27.44,27.44,0,0,1-5.37,3.13,13.81,13.81,0,0,1-5.55,1.23,14.11,14.11,0,0,1-5.6-1,13.39,13.39,0,0,1-3.88-2.47,11.7,11.7,0,0,1-2.42-3.21,17.87,17.87,0,0,1-1.28-3.26,21.9,21.9,0,0,1-.57-3.53h.09a7.38,7.38,0,0,1-.09-1.67c0-1,0-2.21,0-3.62s0-2.9,0-4.49,0-3,0-4.36.05-2.86.05-4.63C261.31,378.61,261.57,378.27,262.22,377.48Z" transform="translate(-58.91 -306.64)"/><path class="cls-1" d="M355.53,381.67a1.4,1.4,0,0,1,.7,1.71A8.23,8.23,0,0,1,355,386a15.9,15.9,0,0,1-2.56,2.9,18.18,18.18,0,0,1-3.35,2.47,10,10,0,0,1-3.52,1.28,4.24,4.24,0,0,1-3.17-.71,26.07,26.07,0,0,1-7.32-11.85,39.62,39.62,0,0,1-1.32-14.27,60.93,60.93,0,0,1,3.35-15.29,99.51,99.51,0,0,1,15.38-28,69.9,69.9,0,0,1,9.34-10,27.91,27.91,0,0,1,8.67-5.38c2.71-.93,4.91-.73,6.61.62a2.8,2.8,0,0,1,.18.71q1.05,1.32,1.67,6.12t.8,11.89q.17,7.09,0,16t-.66,18.55q-.5,9.6-1.19,19.34T376.32,399q-.88,8.76-1.89,16T372.36,427a32.39,32.39,0,0,1-7.89,14,42.63,42.63,0,0,1-13.88,9.43,23.82,23.82,0,0,1-5.37,1.54,35,35,0,0,1-6.65.53,32.41,32.41,0,0,1-6.92-.84,20.13,20.13,0,0,1-6.12-2.46,12.84,12.84,0,0,1-4.32-4.41,11.83,11.83,0,0,1-1.46-6.7,29.78,29.78,0,0,1,.67-5.33,27.65,27.65,0,0,1,1.58-5.06,20,20,0,0,1,2.38-4.19,8.14,8.14,0,0,1,3.13-2.6c1.53-.76,3.18-1.55,5-2.37a37.42,37.42,0,0,1,5.24-2,15.32,15.32,0,0,1,4.62-.7,3.77,3.77,0,0,1,3.13,1.45c.3.35.19.93-.31,1.72s-1.16,1.76-2,2.91-1.75,2.39-2.77,3.74a27.68,27.68,0,0,0-2.69,4.28,19.83,19.83,0,0,0-1.68,4.49,7.36,7.36,0,0,0,.27,4.36,8.73,8.73,0,0,0,3.92,4.63,12,12,0,0,0,6.92,1.63,9.06,9.06,0,0,0,6.52-2.87,17.89,17.89,0,0,0,3.48-6.12,37.94,37.94,0,0,0,1.67-7.23,51.77,51.77,0,0,1,1.1-6.08q.27-4.39.75-11.41t1-15.68q.54-8.67.93-18.37t.57-19.52q.18-9.81,0-19.12t-1-17.13a55,55,0,0,0-6.16,8.32,60,60,0,0,0-7.76,20.67,45.4,45.4,0,0,0-.57,11,39.85,39.85,0,0,0,2.25,10.62A30.25,30.25,0,0,0,355.53,381.67Z" transform="translate(-58.91 -306.64)"/><path class="cls-1" d="M418.88,410.74a12.13,12.13,0,0,1-7.05-1.89q-2.73-1.89-3.17-6.65a19.55,19.55,0,0,1,.39-5.82q.66-3.35,1.15-6.56a31.35,31.35,0,0,0,.39-5.69,3.38,3.38,0,0,0-1.76-3.26,13,13,0,0,0-2.16,0c-.79.06-1.58.15-2.38.27a22.79,22.79,0,0,0-2.24.44,13.68,13.68,0,0,0-1.76.53,11.55,11.55,0,0,1-1,4.67,40.42,40.42,0,0,1-2.64,5.37q-1.54,2.64-3,4.76a13.64,13.64,0,0,1-2.2,2.64l-2.65-2.38a12.39,12.39,0,0,0,3.31-4.14,36.16,36.16,0,0,0,2.33-5.33,21.8,21.8,0,0,0,1.1-4.45q.22-1.85-.39-1.5a6.08,6.08,0,0,1-1.5-2.29,14.49,14.49,0,0,1-1.06-3.21,20.81,20.81,0,0,1-.35-5,11.9,11.9,0,0,1,1.32-4.49,27.81,27.81,0,0,1,2.95-4.81,21.31,21.31,0,0,1,3.75-3.83,6.21,6.21,0,0,1,3.7-1.59,3.75,3.75,0,0,1,2.33.58,4.38,4.38,0,0,1,1.59,1.85,6.34,6.34,0,0,1,.57,2.77,9.4,9.4,0,0,1-.62,3.26,20.37,20.37,0,0,1-.92,2.21c-.44.94-.87,1.89-1.28,2.86s-.73,1.82-1,2.55-.26,1.14-.09,1.19a6.88,6.88,0,0,0,2.16-.52,43.38,43.38,0,0,1,4.28-1.15,23.52,23.52,0,0,1,4.62-.57c1.5,0,2.51.36,3,1.19a7.27,7.27,0,0,1,.79,3.65c.06,1.74,0,3.67-.08,5.82s-.25,4.35-.4,6.61a46.65,46.65,0,0,0,0,6.12,8.92,8.92,0,0,0,1.23,4,5,5,0,0,0,3.35,2.29,9.28,9.28,0,0,0,3.52-.13,14.75,14.75,0,0,0,3.44-1.23,18.8,18.8,0,0,0,3.13-2,24.29,24.29,0,0,0,2.68-2.47l2.29,2.64c-1.11,1.29-2.42,2.68-3.92,4.14a44.92,44.92,0,0,1-4.8,4.1,27.44,27.44,0,0,1-5.37,3.13A13.81,13.81,0,0,1,418.88,410.74Z" transform="translate(-58.91 -306.64)"/><path class="cls-1" d="M86.82,359.78c-.94,1.66-2.4,4.07-4.39,7.21s-4.1,6.36-6.32,9.62-4.42,6.36-6.58,9.27a37.76,37.76,0,0,1-5.18,6L58.91,387a20.14,20.14,0,0,0,1.93-1.87c.58-.65,1.17-1.34,1.75-2.05a60.06,60.06,0,0,0,4.83-6.68q3.08-4.72,6.76-10.78T81.9,353q4-6.58,7.55-12.11t6.14-9.36A21.43,21.43,0,0,1,99.28,327q.52-.36,2.1,4a71.89,71.89,0,0,0,6.32,12q1.23,2,4,5.7t5.71,7.84q2.89,4.1,5,7.66T124,369.4a17.45,17.45,0,0,1-1.14,2.76,39.83,39.83,0,0,1-2.2,3.47q-1.57,2.33-4.3,6.6t-7.11,11.94l-2.45,4.1a58.08,58.08,0,0,0,7-.45,29.84,29.84,0,0,0,7.63-2.05,38.51,38.51,0,0,0,15.89-12.12l4.56,5.35a64.58,64.58,0,0,1-9,9.71,70.31,70.31,0,0,1-25.54,14.52,49.08,49.08,0,0,1-15,2.32,23.1,23.1,0,0,1-3.86-.36l-4.21-.71a13.38,13.38,0,0,1-3.07-.53,19.15,19.15,0,0,1-4.3-1.79,16.26,16.26,0,0,1-4.13-3.2,9.32,9.32,0,0,1-2.37-4.81c-.35-1.9.29-4.52,1.93-7.84A56.33,56.33,0,0,1,78.13,387a31.22,31.22,0,0,1,6.05-6.33c1.87-1.36,2.87-1,3,1a7.6,7.6,0,0,0,2.54,5.53,19.71,19.71,0,0,0,5.71,3.92,13.48,13.48,0,0,0,6,1.33,4.08,4.08,0,0,0,4-2.4c.59-1.54,0-4-1.84-7.31a100.71,100.71,0,0,0-6.41-10.15Q92.79,366.72,86.82,359.78Z" transform="translate(-58.91 -306.64)"/><circle class="cls-2" cx="401.25" cy="91.04" r="11.03"/></svg>